PathFileType	4	(X/Y/Z)	T1_P2_Vision_NoMovement_3_0-731.trc
DataRate	CameraRate	NumFrames	NumMarkers	Units	OrigDataRate	OrigDataStartFrame	OrigNumFrames
60	60	5	27	m	60	365	731
Frame#	Time	RHip			RKnee			RAnkle			RBigToe			RSmallToe			RHeel			LHip			LKnee			LAnkle			LBigToe			LSmallToe			LHeel			Neck			Head			Nose			RShoulder			RElbow			RWrist			RThumb			RIndex			RPinky			LShoulder			LElbow			LWrist			LThumb			LIndex			LPinky		
		X1	Y1	Z1	X2	Y2	Z2	X3	Y3	Z3	X4	Y4	Z4	X5	Y5	Z5	X6	Y6	Z6	X7	Y7	Z7	X8	Y8	Z8	X9	Y9	Z9	X10	Y10	Z10	X11	Y11	Z11	X12	Y12	Z12	X13	Y13	Z13	X14	Y14	Z14	X15	Y15	Z15	X16	Y16	Z16	X17	Y17	Z17	X18	Y18	Z18	X19	Y19	Z19	X20	Y20	Z20	X21	Y21	Z21	X22	Y22	Z22	X23	Y23	Z23	X24	Y24	Z24	X25	Y25	Z25	X26	Y26	Z26	X27	Y27	Z27
366	6.1	449.4901767989509	3663.128159950529	653.2137855509687	838.8927342329189	3683.6919720354454	648.2522098891828	1219.787060261754	3733.3930177313555	688.9451083869807	1283.762444233545	3619.2283681845174	641.8683479052271	1286.3258713041994	3691.550340345897	607.6534492175313	1279.3498875544383	3794.641724783815	743.7931573271476	460.99355860484525	3621.480425490512	870.0763606850493	851.1635221578687	3608.1426553919914	859.4463694017477	1230.5934605837715	3676.3550508184353	854.7693600910387	1311.823664238306	3564.132270498888	812.5593717609474	1286.2130692054163	3538.342940720088	845.4916419573165	1266.3645995748104	3715.0384260279634	860.8432118106788	-125.26467832948993	3620.8901587399155	760.2775944168482	-382.75755560495384	3576.05054465198	722.5021477454142	-236.47431915622627	3463.1606325647826	710.4605902617741	-39.7468513307122	3724.067674621915	631.8236480881684	197.3784410005565	3667.7815706830334	540.6529867666214	358.7177114652006	3557.7767327351858	637.9016151644348	411.6760865637438	3493.9732714407014	718.5860680705744	442.69468787913985	3503.20065989161	731.7058408890807	464.92850848479	3488.3386438399193	712.7433432056675	-33.968340507305115	3590.9416598401554	930.907446714234	216.91650466684132	3520.949967228871	928.7432616446168	361.24377642103747	3421.7608670787145	730.0440559575127	395.7407390329205	3427.9641870995247	628.1727950425993	432.4099966949055	3430.9404819009737	622.6141298201258	474.08099011902067	3488.591365639211	716.3097621235995
367	6.116666666666666	449.24658632232996	3661.4691152555	652.6616928650735	837.2788649465155	3682.830363771727	647.8883155194892	1220.3436353143845	3733.374375219019	689.517389005375	1285.6449526801803	3622.0317024246515	642.8507305579035	1286.3863118191414	3691.61308959867	607.695153660103	1279.1301848601668	3793.978505178748	744.2256185244587	460.96371704002615	3621.0548033811933	869.7982927662197	850.8147116137543	3610.5084087869513	860.2389714780272	1231.620932893871	3676.705789439979	855.0810367949321	1311.2542519142257	3561.7213467357064	811.803245922118	1287.4556091324857	3538.036264860933	845.5259499452359	1269.1721182285728	3722.8598632333305	863.3781272866152	-125.73227219638895	3621.3183234383155	760.5224935234231	-382.7812504766233	3576.7351935461998	721.1501803472026	-237.8839393243703	3471.1327604347975	713.094585700311	-39.76565205411616	3724.1252906221453	631.8454528604856	197.65734678716882	3667.5040662682673	540.5225570034644	358.20581554480174	3555.33283695998	637.2563676772489	412.7379141823551	3496.7434120550242	723.0132965913192	443.7377714040923	3504.1368029830583	732.825066794941	465.4341615568395	3488.377123255876	712.738299063441	-34.37571598693593	3596.407602843241	935.7695961164501	216.66555147188393	3520.929777264795	928.2512270221046	361.08215322174243	3422.9467548978682	732.5174774097696	396.03849935358164	3430.2972551044527	629.5140679828872	432.464516815696	3430.9106281442796	622.6608925133569	474.53580175448144	3488.280294923605	717.3423578271859
368	6.133333333333334	448.7258715773062	3658.3884346822892	651.2167846245023	836.412934692497	3682.753619157419	647.2013877006523	1219.6172674925235	3733.00914398731	688.8754444479856	1288.818590750112	3628.597886317415	645.0656967613272	1286.4484262306032	3691.654434270313	607.6915806257916	1278.271058376193	3793.1359118723813	744.157213453254	460.7718141905862	3621.5515915570695	869.4981437864496	850.8040051327439	3613.1282319501997	860.9719148294121	1232.4693752216092	3676.981808354293	855.3725366737815	1308.6908833493007	3556.0221081518353	809.9438777735644	1288.6144462011428	3537.4003705024525	845.3006929634342	1271.2177622968488	3729.382020960128	865.4643082971238	-125.74852109905247	3621.2909350263108	760.5248281391725	-382.7578452272169	3577.205258302597	720.1057481749674	-238.53492601048242	3477.2091791448115	714.9067288643366	-39.85027380585473	3724.1706075748516	631.868714068504	197.3691504936354	3667.8144731547263	540.6959852879947	357.39559442101154	3549.831531383788	635.7105010208131	413.7972718526578	3497.2552338412715	724.646835068222	444.4149210715774	3503.7782092693305	732.5081960167446	464.928620459871	3488.255588760547	712.5442275048207	-35.90018070638355	3600.1051160965394	938.6672782482634	216.844298531554	3520.346240094674	927.7553439053138	361.6866171072576	3426.689821986936	736.3128328807526	396.71625934479516	3434.168878753195	633.8293545781885	433.1447252124127	3433.8766069782096	625.5309033210336	474.16464988429914	3487.8606732902	718.0965205521568
369	6.15	448.12874610175885	3654.888387191576	649.4147110481825	836.2334754608361	3683.184337355344	646.3927166178376	1217.7558842681235	3732.1038026816213	687.6060227577806	1292.117048409703	3636.6966940294365	647.5815789535119	1286.463320607878	3691.67126011238	607.6627429598955	1276.6995983188842	3791.9619100975315	743.7408272384827	460.242191516817	3623.448952540944	869.6282024242062	851.5294275436477	3616.963383136905	862.1655279060187	1233.4814248268297	3677.3575603531317	855.7301624700194	1305.7669227241433	3550.516050513253	808.1382709904301	1289.070020720495	3537.0355442069567	845.1261948484987	1271.8446216509687	3732.083538370552	866.3489569433567	-125.6495059574566	3621.1300249148753	760.4631976634112	-382.69978779896155	3577.336262762747	719.8003570113858	-238.71799154941058	3479.323651123109	715.3567264121573	-39.966863099841746	3724.2126047660695	631.8917927886786	197.1759817695601	3667.982042230844	540.7996513220728	357.3314962150448	3543.1110912587924	633.8983307028091	415.0990713045768	3497.331107137737	724.885342805691	444.94871901684337	3503.365503694973	731.9779852148379	464.87426930346464	3488.156945845739	712.3544426616577	-37.28114939037953	3601.7013606866567	939.6972659274212	218.4124179693862	3519.578751319977	927.1462443949196	362.4394093557707	3430.866991804997	739.060869922558	397.53674568409167	3437.3602022625396	638.4687878470809	433.6205629525032	3436.0501857279633	627.6726683524699	473.48356216505465	3487.4781247636006	718.386411130677
370	6.166666666666667	447.6757842325921	3651.329407174185	648.0226864910579	836.518972437795	3683.6311202680563	646.0370310010752	1215.4619692115712	3730.794112256046	686.6844196752742	1294.1482936289563	3642.2896661272566	649.295288323277	1286.4358498303664	3691.655103760825	607.6237506356763	1275.5356483189707	3791.4925310473645	743.0457806916816	459.1664731479051	3625.114918769296	870.0387771462342	852.4907847146027	3620.7967192434944	863.4158509321596	1234.4977801654868	3677.8146351685705	856.1073393221512	1305.2451298208503	3550.3660772354224	808.1122318410366	1288.7418902643835	3537.4414007479904	845.341489657955	1271.0105646897184	3731.321962003149	866.1693133320199	-125.58424255882603	3621.034179282374	760.4342377576922	-382.67642026057763	3577.2459926003376	720.2103535698614	-239.1411367068916	3479.126574067026	715.2950530311838	-39.95675066930131	3724.155696214587	631.8625110303474	197.8173381102591	3667.2046576021608	540.4307750548693	358.04194403939084	3538.2186657659386	632.6287387776374	416.82162826716774	3497.8924277225287	724.97804087247	445.28008897499035	3502.9732896355786	731.6813398151437	465.86434078798976	3488.649196429913	712.6574893817572	-37.89077987901052	3601.601557239676	939.4168453577804	220.727740211335	3518.6066727042166	926.4877505352953	362.4942340113327	3431.5945175511742	737.6266257856622	398.0659018485152	3436.7468569090966	639.4423777309494	433.50336162973974	3435.515257333295	627.2754076020477	473.0580893850439	3487.1729511703293	718.3422309887608
